<?xml version="1.0" encoding="UTF-8"?>
<svg id="Layer_1" data-name="Layer 1" xmlns="http://www.w3.org/2000/svg" xmlns:xlink="http://www.w3.org/1999/xlink" viewBox="0 0 1200 300">
  <defs>
    <style>
      .cls-1 {
        fill: url(#linear-gradient-2);
      }

      .cls-2 {
        fill: url(#linear-gradient);
      }

      .cls-3 {
        fill: #e9e9e9;
      }
    </style>
    <linearGradient id="linear-gradient" x1="624" y1="146.02" x2="576" y2="146.02" gradientUnits="userSpaceOnUse">
      <stop offset="0" stop-color="#cd9bcf"/>
      <stop offset="1" stop-color="#9ccbee"/>
    </linearGradient>
    <linearGradient id="linear-gradient-2" x1="664" y1="60" x2="536" y2="60" xlink:href="#linear-gradient"/>
  </defs>
  <g>
    <path class="cls-3" d="M368.93,216.05v-.05c0-10.73,6.12-17.44,15.84-17.44s15.84,6.73,15.84,17.44v.05c0,10.73-6.07,17.46-15.84,17.46s-15.84-6.7-15.84-17.46ZM395.25,216.05v-.05c0-7.85-4.05-12.8-10.48-12.8s-10.5,4.92-10.5,12.8v.05c0,7.88,4.08,12.82,10.5,12.82s10.48-5.02,10.48-12.82Z"/>
    <path class="cls-3" d="M405,208.29h5.06v4.24h.12c1.48-2.93,4.2-4.71,7.71-4.71,6.28,0,10.31,4.92,10.31,12.8v.02c0,7.85-4.05,12.8-10.24,12.8-3.49,0-6.33-1.78-7.78-4.64h-.12v12.35h-5.06v-32.86ZM423.05,220.65v-.02c0-5.25-2.51-8.46-6.47-8.46s-6.54,3.33-6.54,8.46v.02c0,5.11,2.72,8.44,6.54,8.44s6.47-3.23,6.47-8.44Z"/>
    <path class="cls-3" d="M431.02,220.72v-.02c0-7.71,4.45-12.87,11.37-12.87s11.16,4.97,11.16,12.38v1.71h-17.46c.09,4.66,2.65,7.38,6.68,7.38,3,0,4.99-1.55,5.62-3.4l.07-.19h4.8l-.05.26c-.8,3.91-4.59,7.48-10.57,7.48-7.24,0-11.62-4.95-11.62-12.73ZM436.15,218.33h12.38c-.42-4.27-2.81-6.35-6.12-6.35s-5.81,2.23-6.26,6.35Z"/>
    <path class="cls-3" d="M457.45,208.29h5.06v3.73h.12c1.29-2.51,3.82-4.2,7.55-4.2,5.41,0,8.53,3.49,8.53,9.16v15.96h-5.09v-15c0-3.7-1.73-5.79-5.25-5.79s-5.86,2.58-5.86,6.42v14.37h-5.06v-24.66Z"/>
    <path class="cls-3" d="M492.42,223.95l-.02-.35h5.11l.05.3c.47,3.12,3.59,5.06,8.11,5.06s7.38-2.04,7.38-5.2v-.02c0-2.72-1.85-4.2-6.33-5.18l-3.68-.77c-6.63-1.41-9.84-4.45-9.84-9.47v-.02c.02-5.77,5.11-9.73,12.26-9.73s11.88,3.84,12.23,9.52l.02.4h-5.11l-.02-.33c-.47-3.14-3.19-5.04-7.2-5.04-4.2.02-6.87,2.02-6.87,4.97v.02c0,2.53,1.92,4.08,6.14,4.99l3.7.77c6.98,1.48,9.98,4.31,9.98,9.54v.02c0,6.16-4.88,10.08-12.89,10.08-7.59,0-12.61-3.61-13.03-9.56Z"/>
    <path class="cls-3" d="M521.34,220.62v-.05c0-7.88,4.66-12.75,11.67-12.75s11.72,4.85,11.72,12.75v.05c0,7.95-4.64,12.82-11.7,12.82s-11.7-4.9-11.7-12.82ZM539.55,220.62v-.05c0-5.39-2.58-8.51-6.54-8.51s-6.49,3.12-6.49,8.51v.05c0,5.46,2.58,8.58,6.54,8.58s6.49-3.14,6.49-8.58Z"/>
    <path class="cls-3" d="M548.53,224.28v-15.98h5.06v15c0,3.73,1.73,5.79,5.25,5.79s5.86-2.55,5.86-6.4v-14.39h5.09v24.66h-5.09v-3.7h-.12c-1.29,2.48-3.8,4.2-7.55,4.2-5.41,0-8.51-3.49-8.51-9.16Z"/>
    <path class="cls-3" d="M574.78,208.29h5.06v4.22h.12c.8-2.88,2.86-4.69,5.67-4.69.73,0,1.36.12,1.76.19v4.71c-.4-.16-1.29-.28-2.27-.28-3.26,0-5.27,2.13-5.27,5.81v14.7h-5.06v-24.66Z"/>
    <path class="cls-3" d="M588.38,220.6v-.02c0-7.8,4.59-12.75,11.62-12.75,6.35,0,10.2,4.08,10.62,8.72l.02.16h-4.83l-.05-.19c-.54-2.41-2.41-4.45-5.72-4.45-3.94,0-6.49,3.28-6.49,8.55v.02c0,5.39,2.6,8.55,6.52,8.55,3.12,0,5.11-1.8,5.72-4.48l.02-.19h4.88l-.02.16c-.54,4.95-4.66,8.74-10.59,8.74-7.2,0-11.7-4.95-11.7-12.84Z"/>
    <path class="cls-3" d="M613.17,220.72v-.02c0-7.71,4.45-12.87,11.37-12.87s11.16,4.97,11.16,12.38v1.71h-17.46c.09,4.66,2.65,7.38,6.68,7.38,3,0,4.99-1.55,5.62-3.4l.07-.19h4.8l-.05.26c-.8,3.91-4.59,7.48-10.57,7.48-7.24,0-11.62-4.95-11.62-12.73ZM618.3,218.33h12.38c-.42-4.27-2.81-6.35-6.12-6.35s-5.81,2.23-6.26,6.35Z"/>
    <path class="cls-3" d="M648.45,223.95l-.02-.35h5.11l.05.3c.47,3.12,3.59,5.06,8.11,5.06s7.38-2.04,7.38-5.2v-.02c0-2.72-1.85-4.2-6.33-5.18l-3.68-.77c-6.63-1.41-9.84-4.45-9.84-9.47v-.02c.02-5.77,5.11-9.73,12.26-9.73s11.88,3.84,12.23,9.52l.02.4h-5.11l-.02-.33c-.47-3.14-3.19-5.04-7.2-5.04-4.2.02-6.87,2.02-6.87,4.97v.02c0,2.53,1.92,4.08,6.14,4.99l3.7.77c6.98,1.48,9.98,4.31,9.98,9.54v.02c0,6.16-4.88,10.08-12.89,10.08-7.59,0-12.61-3.61-13.03-9.56Z"/>
    <path class="cls-3" d="M677.37,220.62v-.05c0-7.88,4.66-12.75,11.67-12.75s11.72,4.85,11.72,12.75v.05c0,7.95-4.64,12.82-11.7,12.82s-11.7-4.9-11.7-12.82ZM695.58,220.62v-.05c0-5.39-2.58-8.51-6.54-8.51s-6.49,3.12-6.49,8.51v.05c0,5.46,2.58,8.58,6.54,8.58s6.49-3.14,6.49-8.58Z"/>
    <path class="cls-3" d="M706.15,212.33h-3.4v-4.03h3.4v-2.62c0-4.78,2.25-7.03,7.27-7.03,1.03,0,2.16.09,2.84.21v3.75c-.49-.07-1.12-.12-1.76-.12-2.27,0-3.35,1.1-3.35,3.28v2.53h5.02v4.03h-4.92v20.62h-5.09v-20.62Z"/>
    <path class="cls-3" d="M721.57,226.46v-14.13h-3.54v-4.03h3.54v-6.42h5.18v6.42h4.62v4.03h-4.62v13.83c0,2.51,1.12,3.26,3.26,3.26.54,0,.98-.05,1.36-.09v3.91c-.59.09-1.55.21-2.58.21-4.88,0-7.22-2.06-7.22-6.98Z"/>
    <path class="cls-3" d="M733.62,208.29h5.06l4.5,19.41h.09l5.13-19.41h4.88l5.16,19.41h.12l4.5-19.41h5.02l-6.75,24.66h-5.27l-5.18-18.47h-.12l-5.13,18.47h-5.23l-6.77-24.66Z"/>
    <path class="cls-3" d="M769.59,225.94v-.05c0-4.29,3.33-6.91,9.16-7.27l6.7-.4v-1.85c0-2.72-1.76-4.36-4.9-4.36-2.93,0-4.73,1.38-5.16,3.35l-.05.21h-4.78l.02-.26c.35-4.24,4.03-7.5,10.1-7.5s9.84,3.19,9.84,8.13v16.99h-5.09v-3.89h-.09c-1.43,2.65-4.29,4.34-7.55,4.34-4.92,0-8.23-3.02-8.23-7.45ZM779.2,229.34c3.56,0,6.26-2.41,6.26-5.62v-1.92l-6.02.38c-3.05.19-4.73,1.52-4.73,3.61v.05c0,2.16,1.78,3.52,4.5,3.52Z"/>
    <path class="cls-3" d="M795.45,208.29h5.06v4.22h.12c.8-2.88,2.86-4.69,5.67-4.69.73,0,1.36.12,1.76.19v4.71c-.4-.16-1.29-.28-2.27-.28-3.26,0-5.27,2.13-5.27,5.81v14.7h-5.06v-24.66Z"/>
    <path class="cls-3" d="M809.04,220.72v-.02c0-7.71,4.45-12.87,11.37-12.87s11.16,4.97,11.16,12.38v1.71h-17.46c.09,4.66,2.65,7.38,6.68,7.38,3,0,4.99-1.55,5.62-3.4l.07-.19h4.8l-.05.26c-.8,3.91-4.59,7.48-10.57,7.48-7.24,0-11.62-4.95-11.62-12.73ZM814.17,218.33h12.38c-.42-4.27-2.81-6.35-6.12-6.35s-5.81,2.23-6.26,6.35Z"/>
  </g>
  <path class="cls-2" d="M600,168.04l-3.48-3.12c-4.04-3.64-7.38-6.78-10.02-9.42-2.64-2.64-4.74-5.01-6.3-7.11s-2.65-4.03-3.27-5.79-.93-3.56-.93-5.4c0-3.76,1.26-6.9,3.78-9.42s5.66-3.78,9.42-3.78c2.08,0,4.06.44,5.94,1.32s3.5,2.12,4.86,3.72c1.36-1.6,2.98-2.84,4.86-3.72s3.86-1.32,5.94-1.32c3.76,0,6.9,1.26,9.42,3.78s3.78,5.66,3.78,9.42c0,1.84-.31,3.64-.93,5.4s-1.71,3.69-3.27,5.79-3.66,4.47-6.3,7.11-5.98,5.78-10.02,9.42l-3.48,3.12Z"/>
  <g>
    <rect class="cls-1" x="536" y="44" width="128" height="32" rx="10" ry="10"/>
    <g>
      <path d="M548.29,54.03c.76-.14,1.75-.25,3.01-.25,1.55,0,2.68.36,3.4,1.01.67.58,1.08,1.46,1.08,2.52s-.32,1.96-.95,2.59c-.83.88-2.18,1.33-3.71,1.33-.47,0-.9-.02-1.26-.11v4.88h-1.57v-11.97ZM549.86,59.84c.34.09.77.13,1.3.13,1.89,0,3.04-.92,3.04-2.57s-1.13-2.38-2.86-2.38c-.68,0-1.21.05-1.48.13v4.7Z"/>
      <path d="M558.27,61.93c.04,2.12,1.39,3.01,2.97,3.01,1.13,0,1.84-.2,2.41-.45l.29,1.13c-.56.25-1.53.56-2.92.56-2.67,0-4.29-1.78-4.29-4.39s1.57-4.7,4.1-4.7c2.84,0,3.58,2.5,3.58,4.11,0,.32-.02.56-.05.74h-6.1ZM562.89,60.8c.02-1.01-.41-2.58-2.18-2.58-1.62,0-2.3,1.48-2.43,2.58h4.61Z"/>
      <path d="M566.38,60c0-1.03-.02-1.91-.07-2.72h1.39l.07,1.71h.05c.4-1.17,1.37-1.91,2.43-1.91.16,0,.29.02.43.04v1.5c-.16-.02-.32-.04-.54-.04-1.12,0-1.91.85-2.12,2.02-.04.23-.05.49-.05.74v4.66h-1.58v-6Z"/>
      <path d="M572.06,64.38c.49.29,1.31.61,2.11.61,1.13,0,1.67-.56,1.67-1.3s-.45-1.15-1.6-1.58c-1.58-.58-2.32-1.44-2.32-2.47,0-1.41,1.15-2.56,3.01-2.56.88,0,1.66.23,2.12.54l-.38,1.13c-.34-.2-.97-.5-1.78-.5-.94,0-1.44.54-1.44,1.19,0,.72.5,1.04,1.64,1.49,1.5.56,2.29,1.31,2.29,2.61,0,1.55-1.21,2.63-3.24,2.63-.95,0-1.84-.25-2.45-.61l.38-1.19Z"/>
      <path d="M582.95,66.2c-2.34,0-4.18-1.73-4.18-4.48,0-2.92,1.93-4.63,4.32-4.63s4.2,1.82,4.2,4.47c0,3.24-2.25,4.65-4.32,4.65h-.02ZM583.02,65.01c1.51,0,2.65-1.42,2.65-3.4,0-1.48-.74-3.33-2.61-3.33s-2.67,1.73-2.67,3.39c0,1.91,1.08,3.35,2.61,3.35h.02Z"/>
      <path d="M589.28,59.64c0-.92-.02-1.64-.07-2.36h1.4l.09,1.42h.04c.43-.81,1.44-1.62,2.88-1.62,1.21,0,3.08.72,3.08,3.71v5.2h-1.58v-5.02c0-1.4-.52-2.59-2.02-2.59-1.03,0-1.84.74-2.12,1.62-.07.2-.11.49-.11.74v5.26h-1.58v-6.36Z"/>
      <path d="M605.41,63.91c0,.76.04,1.5.13,2.09h-1.42l-.14-1.1h-.05c-.47.68-1.42,1.3-2.67,1.3-1.76,0-2.67-1.24-2.67-2.5,0-2.11,1.87-3.26,5.24-3.24v-.18c0-.72-.2-2.04-1.98-2.02-.83,0-1.67.23-2.29.65l-.36-1.06c.72-.45,1.78-.76,2.88-.76,2.68,0,3.33,1.82,3.33,3.57v3.26ZM603.86,61.55c-1.73-.04-3.69.27-3.69,1.96,0,1.04.68,1.51,1.48,1.51,1.15,0,1.89-.72,2.14-1.46.05-.16.07-.34.07-.5v-1.51Z"/>
      <path d="M607.95,53.22h1.58v12.78h-1.58v-12.78Z"/>
      <path d="M617.92,55.2v2.09h2.27v1.21h-2.27v4.68c0,1.08.31,1.69,1.19,1.69.43,0,.68-.04.92-.11l.07,1.21c-.31.11-.79.22-1.4.22-.74,0-1.33-.25-1.71-.67-.43-.49-.61-1.26-.61-2.29v-4.74h-1.35v-1.21h1.35v-1.6l1.55-.49Z"/>
      <path d="M621.97,60c0-1.03-.02-1.91-.07-2.72h1.39l.07,1.71h.05c.4-1.17,1.37-1.91,2.43-1.91.16,0,.29.02.43.04v1.5c-.16-.02-.32-.04-.54-.04-1.12,0-1.91.85-2.12,2.02-.04.23-.05.49-.05.74v4.66h-1.58v-6Z"/>
      <path d="M633.9,63.91c0,.76.04,1.5.13,2.09h-1.42l-.14-1.1h-.05c-.47.68-1.42,1.3-2.67,1.3-1.76,0-2.67-1.24-2.67-2.5,0-2.11,1.87-3.26,5.24-3.24v-.18c0-.72-.2-2.04-1.98-2.02-.83,0-1.67.23-2.29.65l-.36-1.06c.72-.45,1.78-.76,2.88-.76,2.68,0,3.33,1.82,3.33,3.57v3.26ZM632.36,61.55c-1.73-.04-3.69.27-3.69,1.96,0,1.04.68,1.51,1.48,1.51,1.15,0,1.89-.72,2.14-1.46.05-.16.07-.34.07-.5v-1.51Z"/>
      <path d="M637.2,55.81c-.58,0-.95-.45-.95-.97,0-.56.4-.99.99-.99s.97.43.97.99c0,.52-.38.97-.99.97h-.02ZM636.44,66v-8.71h1.58v8.71h-1.58Z"/>
      <path d="M642.56,55.2v2.09h2.27v1.21h-2.27v4.68c0,1.08.31,1.69,1.19,1.69.43,0,.68-.04.92-.11l.07,1.21c-.31.11-.79.22-1.4.22-.74,0-1.33-.25-1.71-.67-.43-.49-.61-1.26-.61-2.29v-4.74h-1.35v-1.21h1.35v-1.6l1.55-.49Z"/>
      <path d="M646.39,64.38c.49.29,1.31.61,2.11.61,1.13,0,1.67-.56,1.67-1.3s-.45-1.15-1.6-1.58c-1.58-.58-2.32-1.44-2.32-2.47,0-1.41,1.15-2.56,3.01-2.56.88,0,1.66.23,2.12.54l-.38,1.13c-.34-.2-.97-.5-1.78-.5-.94,0-1.44.54-1.44,1.19,0,.72.5,1.04,1.64,1.49,1.49.56,2.29,1.31,2.29,2.61,0,1.55-1.21,2.63-3.24,2.63-.95,0-1.84-.25-2.45-.61l.38-1.19Z"/>
    </g>
  </g>
</svg>