<?xml version="1.0" encoding="UTF-8"?>
<svg id="Layer_1" data-name="Layer 1" xmlns="http://www.w3.org/2000/svg" xmlns:xlink="http://www.w3.org/1999/xlink" viewBox="0 0 1200 600">
  <defs>
    <style>
      .cls-1 {
        fill: #232323;
      }

      .cls-2 {
        fill: #3ddc84;
      }

      .cls-3 {
        fill: url(#linear-gradient);
      }

      .cls-4 {
        fill: #5fa04e;
      }

      .cls-5 {
        fill: #ffd43b;
      }

      .cls-6 {
        fill: #61dafb;
      }
    </style>
    <linearGradient id="linear-gradient" x1="777.9" y1="507.63" x2="461.31" y2="507.63" gradientUnits="userSpaceOnUse">
      <stop offset="0" stop-color="#b84dc6"/>
      <stop offset="1" stop-color="#75b6e7"/>
    </linearGradient>
  </defs>
  <g>
    <path class="cls-1" d="M412.15,346.84h12.25v33.36h40.52v-33.36h12.25v78.91h-12.25v-34.95h-40.52v34.95h-12.25v-78.91Z"/>
    <path class="cls-1" d="M487.67,397.21v-.05c0-17.99,10.39-30.02,26.52-30.02s26.03,11.59,26.03,28.88v3.99h-40.74c.22,10.88,6.18,17.23,15.59,17.23,7,0,11.65-3.61,13.12-7.93l.16-.44h11.21l-.11.6c-1.86,9.13-10.72,17.45-24.66,17.45-16.9,0-27.12-11.54-27.12-29.7ZM499.65,391.63h28.88c-.98-9.95-6.56-14.82-14.27-14.82s-13.56,5.2-14.6,14.82Z"/>
    <path class="cls-1" d="M549.79,346.84h11.81v78.91h-11.81v-78.91Z"/>
    <path class="cls-1" d="M574.18,346.84h11.81v78.91h-11.81v-78.91Z"/>
    <path class="cls-1" d="M595.57,396.99v-.11c0-18.38,10.88-29.75,27.23-29.75s27.34,11.32,27.34,29.75v.11c0,18.54-10.83,29.91-27.29,29.91s-27.29-11.43-27.29-29.91ZM638.06,396.99v-.11c0-12.58-6.02-19.85-15.26-19.85s-15.15,7.27-15.15,19.85v.11c0,12.74,6.02,20.02,15.26,20.02s15.15-7.33,15.15-20.02Z"/>
    <path class="cls-1" d="M657.53,413.61h11.81l-7.98,28h-8.31l4.48-28Z"/>
    <path class="cls-1" d="M699.97,346.84h12.25v78.91h-12.25v-78.91Z"/>
    <path class="cls-1" d="M728.4,346.84h11.81l-7.98,28h-8.31l4.48-28Z"/>
    <path class="cls-1" d="M746.18,368.22h11.81v8.91h.27c2.46-6.02,8.31-10.01,15.86-10.01,7.93,0,13.73,4.1,16.02,11.32h.27c2.95-7,9.73-11.32,17.94-11.32,11.38,0,18.81,7.55,18.81,19.09v39.54h-11.87v-36.7c0-7.49-3.99-11.81-10.99-11.81s-11.87,5.25-11.87,12.52v35.98h-11.59v-37.57c0-6.67-4.21-10.94-10.88-10.94-7,0-11.98,5.52-11.98,12.96v35.55h-11.81v-57.53Z"/>
    <path class="cls-3" d="M461.31,473.31h10.5v28.59h34.73v-28.59h10.5v67.64h-10.5v-29.95h-34.73v29.95h-10.5v-67.64ZM526.04,516.49v-.05c0-15.42,8.91-25.73,22.73-25.73s22.31,9.94,22.31,24.75v3.42h-34.92c.19,9.33,5.3,14.77,13.36,14.77,6,0,9.98-3.09,11.25-6.8l.14-.38h9.61l-.09.52c-1.59,7.83-9.19,14.95-21.14,14.95-14.48,0-23.25-9.89-23.25-25.45ZM536.31,511.7h24.75c-.84-8.53-5.62-12.7-12.23-12.7s-11.62,4.45-12.52,12.7ZM578.91,491.64h10.12v7.45h.23c2.58-5.02,7.64-8.39,15.09-8.39,10.83,0,17.06,6.98,17.06,18.33v31.92h-10.17v-30c0-7.41-3.47-11.58-10.5-11.58s-11.72,5.16-11.72,12.84v28.73h-10.12v-49.31ZM628.98,516.3v-.05c0-15.7,8.16-25.55,20.53-25.55,6.98,0,12.61,3.52,15.56,9.33h.19v-26.72h10.17v67.64h-10.17v-8.34h-.19c-2.95,5.77-8.39,9.33-15.47,9.33-12.56,0-20.62-9.94-20.62-25.64ZM665.31,516.3v-.05c0-10.22-5.44-16.88-13.03-16.88-7.97,0-12.94,6.47-12.94,16.88v.05c0,10.5,4.92,16.92,12.94,16.92s13.03-6.66,13.03-16.92ZM685.79,491.64h10.12v8.44h.23c1.59-5.77,5.72-9.38,11.34-9.38,1.45,0,2.72.23,3.52.38v9.42c-.8-.33-2.58-.56-4.55-.56-6.52,0-10.55,4.27-10.55,11.62v29.39h-10.12v-49.31ZM714.29,526.94v-.09c0-8.58,6.66-13.83,18.33-14.53l13.41-.8v-3.7c0-5.44-3.52-8.72-9.8-8.72-5.86,0-9.47,2.77-10.31,6.7l-.09.42h-9.56l.05-.52c.7-8.48,8.06-15,20.2-15s19.69,6.38,19.69,16.27v33.98h-10.17v-7.78h-.19c-2.86,5.3-8.58,8.67-15.09,8.67-9.84,0-16.45-6.05-16.45-14.91ZM733.51,533.74c7.12,0,12.52-4.83,12.52-11.25v-3.84l-12.05.75c-6.09.38-9.47,3.05-9.47,7.22v.09c0,4.31,3.56,7.03,9,7.03ZM765.57,535.52c0-3.47,2.72-6.14,6.19-6.14s6.14,2.67,6.14,6.14-2.72,6.14-6.14,6.14-6.19-2.72-6.19-6.14Z"/>
  </g>
  <g>
    <path class="cls-1" d="M1009.02,298.54c-3.85,0-7.15-1.37-9.89-4.11-2.74-2.74-4.11-6.04-4.11-9.89v-126c0-3.85,1.37-7.15,4.11-9.89,2.74-2.74,6.04-4.11,9.89-4.11h70c3.85,0,7.15,1.37,9.89,4.11,2.74,2.74,4.11,6.04,4.11,9.89v126c0,3.85-1.37,7.15-4.11,9.89-2.74,2.74-6.04,4.11-9.89,4.11h-70ZM1009.02,263.54h70v-84h-70v84Z"/>
    <path class="cls-2" d="M1061.19,204.37c-1.8,3.11-3.61,6.22-5.41,9.33-.1-.04-.2-.08-.3-.11-4.87-1.86-9.29-2.13-11.79-2.1-4.95.05-8.95,1.24-11.36,2.19-.22-.4-4.67-8.06-5.39-9.3-.11-.18-.23-.35-.37-.51-.88-.97-2.41-1.3-3.68-.54-1.27.75-1.9,2.5-1.04,4.01,5.19,8.99-.26-.58,5.19,8.96.05.08-1.32.7-3.71,2.71-3.59,3.02-10.12,9.94-11.32,21.19h64c-.32-2.96-.98-5.6-1.99-8.18-1.98-5.1-4.92-8.78-7.31-11.16-1.72-1.71-3.63-3.22-5.68-4.5,1.76-2.99,3.5-6.02,5.24-9.03.55-.96.5-2.12-.02-2.98-.48-.81-1.33-1.34-2.27-1.42-1.39-.14-2.5.83-2.8,1.45ZM1061.08,226.93c1.05,1.58.86,3.55-.42,4.4-1.28.85-3.17.26-4.22-1.32-1.05-1.58-.86-3.55.42-4.4,1.26-.84,3.15-.29,4.22,1.32h0ZM1031.23,225.62c1.28.85,1.47,2.82.42,4.4-1.05,1.58-2.94,2.17-4.22,1.32-1.28-.85-1.47-2.82-.42-4.4,1.07-1.61,2.96-2.16,4.22-1.32Z"/>
  </g>
  <g>
    <path class="cls-1" d="M382.7,231.39c-5.96,0-11.06-2.12-15.3-6.36-4.24-4.24-6.36-9.34-6.36-15.3V79.73c0-5.96,2.12-11.06,6.36-15.3,4.24-4.24,9.34-6.36,15.3-6.36h195c5.96,0,11.06,2.12,15.3,6.36,4.24,4.24,6.36,9.34,6.36,15.3v130c0,5.96-2.12,11.06-6.36,15.3s-9.34,6.36-15.3,6.36h-195ZM415.2,209.73h130V79.73h-130v130Z"/>
    <path class="cls-6" d="M488.13,144.74c0,4.39-3.56,7.95-7.95,7.95-4.39,0-7.95-3.56-7.95-7.95h0c0-4.39,3.56-7.95,7.95-7.95,4.39,0,7.95,3.56,7.95,7.95h0ZM497.55,106.73c-4.79,0-11.05,3.41-17.38,9.32-6.33-5.88-12.59-9.25-17.38-9.25-1.46,0-2.78.33-3.93.99-4.89,2.82-5.98,11.61-3.46,22.63-10.82,3.34-17.86,8.69-17.86,14.32s7.08,11.01,17.93,14.33c-2.5,11.07-1.39,19.87,3.51,22.68,1.14.66,2.45.98,3.92.98,4.78,0,11.05-3.41,17.38-9.33,6.33,5.88,12.59,9.26,17.38,9.26,1.46,0,2.78-.32,3.93-.98,4.89-2.82,5.98-11.6,3.46-22.63,10.78-3.31,17.82-8.67,17.82-14.31s-7.08-11.01-17.93-14.34c2.5-11.06,1.39-19.86-3.51-22.68-1.13-.65-2.45-.98-3.88-.99h0ZM497.53,110.6v.02c.8,0,1.44.16,1.98.45,2.37,1.36,3.4,6.52,2.6,13.17-.19,1.64-.5,3.36-.89,5.12-3.41-.84-7.13-1.48-11.05-1.9-2.35-3.22-4.78-6.14-7.24-8.7,5.66-5.26,10.98-8.15,14.6-8.16h0ZM462.79,110.67c3.6,0,8.94,2.87,14.61,8.11-2.44,2.56-4.87,5.46-7.18,8.68-3.94.42-7.66,1.06-11.07,1.91-.4-1.74-.69-3.43-.9-5.05-.82-6.64.19-11.8,2.54-13.18.68-.32,1.42-.45,2-.47h0ZM480.15,121.52c1.62,1.66,3.24,3.53,4.84,5.56-1.56-.07-3.16-.12-4.78-.12s-3.25.04-4.84.12c1.56-2.03,3.18-3.9,4.78-5.56h0ZM480.2,130.86c2.63,0,5.25.12,7.83.33,1.44,2.07,2.85,4.28,4.21,6.61,1.32,2.28,2.52,4.59,3.62,6.92-1.1,2.33-2.3,4.66-3.6,6.93-1.35,2.35-2.75,4.58-4.2,6.65-2.59.22-5.21.35-7.86.35s-5.25-.12-7.83-.33c-1.44-2.07-2.85-4.28-4.21-6.61-1.32-2.28-2.52-4.59-3.62-6.92,1.08-2.34,2.3-4.67,3.6-6.95,1.35-2.35,2.75-4.57,4.2-6.64,2.59-.23,5.21-.35,7.86-.35h0ZM467.28,131.76c-.85,1.34-1.71,2.71-2.5,4.12-.8,1.39-1.55,2.78-2.26,4.17-.94-2.33-1.74-4.66-2.4-6.92,2.28-.53,4.68-1.01,7.16-1.37h0ZM493.09,131.76c2.47.37,4.85.82,7.13,1.38-.64,2.25-1.44,4.56-2.35,6.87-.71-1.39-1.46-2.78-2.28-4.17-.8-1.39-1.65-2.75-2.51-4.07h0ZM503.98,134.16c1.72.53,3.36,1.13,4.89,1.77,6.16,2.63,10.14,6.07,10.14,8.8-.02,2.73-4,6.19-10.16,8.8-1.49.64-3.13,1.22-4.82,1.75-1-3.41-2.3-6.95-3.91-10.6,1.6-3.62,2.88-7.15,3.86-10.54h0ZM456.36,134.17c.99,3.41,2.29,6.96,3.91,10.6-1.6,3.62-2.89,7.15-3.86,10.54-1.72-.53-3.36-1.13-4.87-1.78-6.16-2.62-10.14-6.07-10.14-8.8s3.98-6.19,10.14-8.8c1.49-.64,3.13-1.22,4.82-1.76ZM497.88,149.39c.94,2.34,1.74,4.66,2.4,6.93-2.28.56-4.68,1.03-7.17,1.39.85-1.33,1.71-2.71,2.51-4.12.8-1.39,1.55-2.8,2.26-4.2h0ZM462.52,149.46c.71,1.39,1.46,2.78,2.28,4.18.82,1.39,1.65,2.74,2.51,4.06-2.47-.36-4.85-.82-7.13-1.37.64-2.24,1.44-4.56,2.35-6.87h0ZM501.25,160.08c.4,1.75.71,3.44.9,5.06.82,6.64-.19,11.8-2.54,13.18-.52.32-1.2.46-2,.46-3.6,0-8.94-2.87-14.61-8.11,2.44-2.56,4.87-5.46,7.18-8.68,3.94-.42,7.66-1.07,11.07-1.92h0ZM459.19,160.12c3.41.83,7.13,1.48,11.05,1.89,2.35,3.22,4.78,6.14,7.24,8.7-5.67,5.27-10.99,8.16-14.61,8.16-.78-.02-1.44-.18-1.97-.47-2.37-1.35-3.4-6.52-2.6-13.17.19-1.64.5-3.36.89-5.11h0ZM475.4,162.39c1.56.07,3.16.12,4.78.12s3.25-.04,4.84-.12c-1.56,2.03-3.18,3.89-4.78,5.56-1.62-1.67-3.24-3.53-4.84-5.56Z"/>
  </g>
  <g>
    <path class="cls-1" d="M740.37,269.06v-21.67l10.83-10.83h-32.5c-5.96,0-11.06-2.12-15.3-6.36-4.24-4.24-6.36-9.34-6.36-15.3v-119.17c0-5.96,2.12-11.06,6.36-15.3s9.34-6.36,15.3-6.36h173.33c5.96,0,11.06,2.12,15.3,6.36s6.36,9.34,6.36,15.3v119.17c0,5.96-2.12,11.06-6.36,15.3-4.24,4.24-9.34,6.36-15.3,6.36h-32.5l10.83,10.83v21.67h-130ZM718.7,214.89h173.33v-119.17h-173.33v119.17ZM718.7,214.89v-119.17,119.17Z"/>
    <path class="cls-4" d="M805.36,193.31c-1.02,0-2.03-.27-2.92-.78l-9.3-5.5c-1.39-.78-.71-1.05-.25-1.21,1.85-.64,2.23-.79,4.21-1.91.21-.12.48-.07.69.05l7.14,4.24c.26.14.62.14.86,0l27.85-16.07c.26-.15.42-.45.42-.75v-32.14c0-.31-.17-.61-.43-.77l-27.84-16.06c-.26-.15-.6-.15-.86,0l-27.83,16.06c-.27.16-.44.46-.44.76v32.14c0,.31.17.6.44.74l7.63,4.41c4.14,2.07,6.68-.37,6.68-2.82v-31.73c0-.45.36-.8.81-.8h3.53c.44,0,.81.35.81.8v31.73c0,5.53-3.01,8.69-8.25,8.69-1.61,0-2.88,0-6.42-1.74l-7.31-4.2c-1.8-1.04-2.92-2.99-2.92-5.08v-32.14c0-2.09,1.12-4.04,2.92-5.08l27.85-16.09c1.76-1,4.1-1,5.85,0l27.85,16.09c1.8,1.04,2.93,2.99,2.93,5.08v32.14c0,2.09-1.12,4.03-2.93,5.08l-27.85,16.08c-.89.52-1.9.78-2.93.78ZM827.85,161.62c0-6.02-4.07-7.62-12.63-8.75-8.65-1.14-9.53-1.74-9.53-3.76,0-1.67.74-3.9,7.15-3.9,5.72,0,7.83,1.23,8.7,5.09.08.36.41.63.78.63h3.61c.22,0,.44-.1.59-.26.15-.17.23-.39.21-.62-.56-6.64-4.97-9.74-13.9-9.74-7.94,0-12.68,3.35-12.68,8.97,0,6.1,4.71,7.78,12.33,8.53,9.12.89,9.83,2.23,9.83,4.02,0,3.11-2.5,4.44-8.37,4.44-7.37,0-8.99-1.85-9.53-5.52-.06-.39-.4-.68-.8-.68h-3.6c-.45,0-.8.35-.8.8,0,4.69,2.55,10.29,14.74,10.29,8.83,0,13.89-3.47,13.89-9.54Z"/>
  </g>
  <g>
    <path class="cls-1" d="M120.78,282.54c-3.8,0-7.04-1.35-9.75-4.05s-4.05-5.95-4.05-9.75v-82.8c0-3.8,1.35-7.04,4.05-9.75s5.95-4.05,9.75-4.05h110.4c3.79,0,7.04,1.35,9.75,4.05,2.7,2.7,4.05,5.95,4.05,9.75v82.8c0,3.79-1.35,7.04-4.05,9.75-2.7,2.7-5.95,4.05-9.75,4.05h-110.4ZM120.78,268.74h110.4v-69h-110.4v69Z"/>
    <path class="cls-5" d="M180.46,210.72l1.79.4,1.45.52,1.17.6.9.64.68.68.5.68.32.66.2.6.08.52.04.4-.02.26v10.63l-.1,1.25-.26,1.09-.42.92-.52.76-.6.62-.66.5-.7.38-.7.28-.66.2-.6.14-.52.08-.42.04h-11.88l-1.37.1-1.17.28-1,.44-.82.54-.66.64-.54.7-.4.72-.3.74-.2.7-.14.64-.08.54-.04.42v6.09h-4.44l-.42-.06-.56-.14-.64-.24-.7-.36-.72-.52-.72-.72-.7-.92-.64-1.17-.56-1.45-.42-1.75-.28-2.09-.1-2.45.12-2.43.32-2.07.48-1.73.64-1.41.72-1.13.8-.88.84-.66.84-.48.8-.32.72-.2.64-.1.48-.02h.32l.12.02h16.24v-1.65h-11.62l-.02-5.47-.04-.74.1-.68.22-.62.34-.56.5-.52.62-.46.76-.4.88-.36,1.01-.3,1.15-.24,1.27-.2,1.41-.12,1.53-.08,1.67-.04,2.53.1,2.13.26ZM167.93,214.66l-.46.66-.16.82.16.82.46.68.66.44.82.18.82-.18.66-.44.46-.68.16-.82-.16-.82-.46-.66-.66-.44-.82-.18-.82.18-.66.44ZM193.97,222.52l.56.12.64.24.7.36.72.54.72.7.7.94.64,1.17.56,1.45.42,1.75.28,2.07.1,2.45-.12,2.45-.32,2.07-.48,1.71-.64,1.41-.72,1.13-.8.9-.84.66-.84.48-.8.32-.72.18-.64.1-.48.04-.32-.02h-16.36v1.63h11.62l.02,5.49.04.72-.1.68-.22.62-.34.58-.5.5-.62.48-.76.4-.88.34-1.01.3-1.15.26-1.27.18-1.41.14-1.53.08-1.67.02-2.53-.08-2.13-.28-1.79-.4-1.45-.5-1.17-.6-.9-.66-.68-.68-.5-.68-.32-.66-.2-.6-.08-.5-.04-.4.02-.26v-10.63l.1-1.27.26-1.07.42-.92.52-.76.6-.64.66-.48.7-.4.7-.28.66-.2.6-.12.52-.08.42-.04.26-.02h11.62l1.37-.1,1.17-.28,1-.42.82-.56.66-.64.54-.7.4-.72.3-.72.2-.7.14-.64.08-.56.04-.42v-6.09h4.16l.28.02.42.06ZM181.1,250.88l-.46.66-.16.82.16.82.46.66.66.46.82.16.82-.16.66-.46.46-.66.16-.82-.16-.82-.46-.66-.66-.46-.82-.16-.82.16-.66.46Z"/>
  </g>
</svg>