<?xml version="1.0" encoding="UTF-8"?>
<svg id="Layer_1" data-name="Layer 1" xmlns="http://www.w3.org/2000/svg" xmlns:xlink="http://www.w3.org/1999/xlink" viewBox="0 0 176 176">
  <defs>
    <style>
      .cls-1 {
        fill: none;
      }

      .cls-2 {
        fill: url(#linear-gradient);
      }

      .cls-3 {
        isolation: isolate;
      }

      .cls-4, .cls-5 {
        fill: #fff;
      }

      .cls-5 {
        filter: url(#outer-glow-1);
      }
    </style>
    <linearGradient id="linear-gradient" x1="143.71" y1="184.5" x2="32.29" y2="-8.5" gradientUnits="userSpaceOnUse">
      <stop offset="0" stop-color="#ffd43b"/>
      <stop offset="1" stop-color="#306998"/>
    </linearGradient>
    <filter id="outer-glow-1" x="26" y="-3" width="124" height="118" filterUnits="userSpaceOnUse">
      <feOffset dx="0" dy="0"/>
      <feGaussianBlur result="blur" stdDeviation="10"/>
      <feFlood flood-color="#000" flood-opacity=".5"/>
      <feComposite in2="blur" operator="in"/>
      <feComposite in="SourceGraphic"/>
    </filter>
  </defs>
  <path class="cls-2" d="M0,24C0,10.75,10.75,0,24,0h128c13.25,0,24,10.75,24,24v128c0,13.25-10.75,24-24,24H24c-13.25,0-24-10.75-24-24V24Z"/>
  <g class="cls-3">
    <path class="cls-4" d="M62.57,134v-12.68h1.58v12.68h-1.58ZM63.36,129.47v-1.41h3.32c.91,0,1.61-.24,2.11-.71.5-.47.75-1.12.75-1.96v-.02c0-.84-.25-1.49-.75-1.96s-1.2-.7-2.11-.7h-3.32v-1.41h3.73c.8,0,1.5.17,2.11.51s1.09.81,1.44,1.42.52,1.32.52,2.12v.02c0,.8-.17,1.51-.52,2.13s-.83,1.1-1.44,1.44-1.31.52-2.11.52h-3.73Z"/>
    <path class="cls-4" d="M73.61,137.08c-.15,0-.29,0-.44-.02-.15-.02-.27-.03-.37-.05v-1.25c.06.01.14.02.22.04s.17.02.27.02c.49,0,.88-.08,1.17-.25s.53-.51.71-1.03l.18-.52-3.39-9.15h1.63l2.64,7.96-.33-.35h.46l-.33.35,2.65-7.96h1.61l-3.57,9.71c-.22.58-.46,1.05-.73,1.42s-.59.64-.98.82-.85.26-1.4.26Z"/>
    <path class="cls-4" d="M84.46,134.18c-.84,0-1.46-.2-1.88-.6s-.62-1.03-.62-1.91v-5.55h-1.34v-1.27h1.34v-2.47h1.58v2.47h1.74v1.27h-1.74v5.54c0,.49.11.82.32.99.21.17.52.26.93.26.09,0,.18,0,.27-.01.08,0,.16-.02.22-.02v1.24c-.09.01-.21.02-.36.04-.15.01-.3.02-.45.02Z"/>
    <path class="cls-4" d="M86.99,134v-12.68h1.53v5h.04c.25-.52.61-.92,1.1-1.2s1.07-.43,1.75-.43,1.22.16,1.71.47.87.75,1.15,1.3.41,1.2.41,1.94v5.6h-1.53v-5.33c0-.83-.2-1.47-.6-1.93s-.96-.69-1.67-.69c-.47,0-.88.11-1.23.33s-.63.53-.83.92-.29.85-.29,1.37v5.33h-1.53Z"/>
    <path class="cls-4" d="M100.4,134.18c-.84,0-1.58-.19-2.22-.58s-1.13-.94-1.49-1.65c-.35-.71-.53-1.55-.53-2.52v-.02c0-.97.18-1.81.53-2.52s.85-1.25,1.49-1.63,1.37-.58,2.21-.58,1.58.19,2.22.58,1.13.93,1.49,1.63.53,1.54.53,2.52v.02c0,.97-.18,1.81-.53,2.52s-.85,1.26-1.48,1.64-1.37.58-2.21.58ZM100.41,132.82c.54,0,1.01-.13,1.4-.4.4-.27.7-.65.92-1.16.22-.51.33-1.12.33-1.83v-.02c0-.71-.11-1.32-.33-1.83s-.53-.89-.93-1.15-.87-.4-1.41-.4-.99.13-1.39.4-.71.65-.94,1.15c-.22.5-.33,1.11-.33,1.82v.02c0,.71.11,1.33.33,1.83.22.51.54.89.94,1.16.4.27.87.4,1.41.4Z"/>
    <path class="cls-4" d="M106.17,134v-9.14h1.53v1.3h.04c.25-.43.6-.78,1.07-1.06s1.05-.42,1.74-.42c1,0,1.78.3,2.33.91.55.61.83,1.43.83,2.47v5.93h-1.53v-5.66c0-.74-.17-1.31-.52-1.71-.35-.4-.88-.59-1.58-.59-.48,0-.9.11-1.26.32-.36.21-.63.51-.83.9s-.29.84-.29,1.36v5.38h-1.53Z"/>
    <path class="cls-4" d="M34.64,152v-12.68h1.58v12.68h-1.58ZM35.43,147.47v-1.41h3.32c.91,0,1.61-.24,2.11-.71.5-.47.75-1.12.75-1.96v-.02c0-.84-.25-1.49-.75-1.96s-1.2-.7-2.11-.7h-3.32v-1.41h3.73c.8,0,1.5.17,2.11.51s1.09.81,1.44,1.42.52,1.32.52,2.12v.02c0,.8-.17,1.51-.52,2.13s-.83,1.1-1.44,1.44-1.31.52-2.11.52h-3.73Z"/>
    <path class="cls-4" d="M46.68,152.18c-.6,0-1.13-.11-1.59-.34s-.81-.55-1.07-.97-.38-.9-.38-1.45v-.02c0-.52.13-.97.39-1.35s.64-.68,1.13-.91,1.09-.35,1.79-.4l3.38-.19v1.19l-3.21.19c-.61.04-1.08.18-1.42.44s-.5.6-.5,1.03v.02c0,.44.17.79.5,1.05s.77.39,1.32.39c.48,0,.91-.1,1.3-.3.38-.2.69-.48.91-.83s.34-.75.34-1.19v-2.7c0-.56-.17-.99-.52-1.31-.35-.32-.84-.48-1.48-.48-.59,0-1.06.13-1.42.38-.36.25-.58.59-.67,1l-.02.08h-1.48v-.1c.06-.5.23-.96.52-1.37s.71-.74,1.23-.98,1.14-.37,1.85-.37,1.34.12,1.87.37.93.59,1.22,1.04c.29.45.43.98.43,1.59v6.32h-1.53v-1.49h-.04c-.18.33-.41.63-.7.87-.29.25-.62.44-.99.58-.37.14-.75.21-1.16.21Z"/>
    <path class="cls-4" d="M56.83,152.18c-.86,0-1.61-.19-2.25-.58s-1.13-.94-1.47-1.65c-.35-.71-.52-1.55-.52-2.52h0c0-.97.18-1.8.53-2.51s.84-1.26,1.48-1.64,1.37-.58,2.21-.58c.76,0,1.42.15,1.96.44.54.3.97.68,1.29,1.15s.5.96.57,1.49v.07s-1.49,0-1.49,0l-.02-.07c-.11-.46-.36-.86-.73-1.2s-.9-.52-1.58-.52c-.53,0-.99.14-1.39.42s-.71.67-.93,1.18-.33,1.11-.33,1.8h0c0,.72.11,1.32.34,1.83s.54.89.94,1.16.87.4,1.39.4c.63,0,1.13-.16,1.52-.48s.65-.73.78-1.24l.02-.07h1.5v.06c-.09.58-.3,1.1-.65,1.57-.34.46-.79.83-1.33,1.11-.54.27-1.16.41-1.85.41Z"/>
    <path class="cls-4" d="M62.18,152v-12.68h1.53v12.68h-1.53ZM63.37,148.88v-1.99h.38l4.01-4.03h1.85l-4.33,4.32h-.12l-1.78,1.71ZM67.96,152l-3.48-4.37,1.02-1.02,4.24,5.39h-1.78Z"/>
    <path class="cls-4" d="M73.47,152.18c-.6,0-1.13-.11-1.59-.34s-.81-.55-1.07-.97-.38-.9-.38-1.45v-.02c0-.52.13-.97.39-1.35s.64-.68,1.13-.91,1.09-.35,1.79-.4l3.38-.19v1.19l-3.21.19c-.61.04-1.08.18-1.42.44s-.5.6-.5,1.03v.02c0,.44.17.79.5,1.05s.77.39,1.32.39c.48,0,.91-.1,1.3-.3.38-.2.69-.48.91-.83s.34-.75.34-1.19v-2.7c0-.56-.17-.99-.52-1.31-.35-.32-.84-.48-1.48-.48-.59,0-1.06.13-1.42.38-.36.25-.58.59-.67,1l-.02.08h-1.48v-.1c.06-.5.23-.96.52-1.37s.71-.74,1.23-.98,1.14-.37,1.85-.37,1.34.12,1.87.37.93.59,1.22,1.04c.29.45.43.98.43,1.59v6.32h-1.53v-1.49h-.04c-.18.33-.41.63-.7.87-.29.25-.62.44-.99.58-.37.14-.75.21-1.16.21Z"/>
    <path class="cls-4" d="M83.7,155.25c-.75,0-1.41-.11-1.96-.32-.56-.21-1.01-.5-1.35-.87s-.56-.77-.66-1.23l-.02-.08h1.54l.04.08c.15.33.43.59.85.78.42.19.94.29,1.56.29.8,0,1.42-.21,1.86-.62.44-.41.66-.97.66-1.68v-1.17h-.04c-.18.34-.42.63-.7.88s-.62.44-.99.58c-.37.14-.78.21-1.22.21-.77,0-1.44-.19-2.03-.58s-1.04-.94-1.36-1.64c-.33-.71-.49-1.53-.49-2.48h0c0-.96.17-1.78.5-2.48s.79-1.24,1.38-1.63,1.27-.58,2.04-.58c.43,0,.83.07,1.2.22s.69.35.97.61.52.56.71.9h.04v-1.55h1.53v8.89c0,.71-.16,1.33-.49,1.85-.33.52-.79.93-1.4,1.22-.6.29-1.32.44-2.14.44ZM83.59,150.73c.52,0,.98-.14,1.37-.42.39-.28.69-.67.91-1.17s.33-1.09.33-1.77h0c0-.68-.11-1.27-.33-1.77s-.53-.88-.92-1.16-.85-.41-1.36-.41-1.01.14-1.41.41c-.4.27-.71.66-.92,1.16s-.32,1.09-.32,1.77h0c0,.7.11,1.3.32,1.8.21.5.52.89.92,1.16.4.27.87.41,1.41.41Z"/>
    <path class="cls-4" d="M93.47,152.18c-.87,0-1.62-.19-2.25-.58s-1.11-.93-1.45-1.64-.5-1.54-.5-2.49h0c0-.95.17-1.78.51-2.5s.82-1.28,1.43-1.68c.62-.4,1.34-.6,2.17-.6s1.55.19,2.15.58,1.06.92,1.38,1.61.48,1.49.48,2.41v.56h-7.37v-1.2h6.61l-.77,1.11v-.59c0-.71-.11-1.29-.32-1.76s-.51-.81-.88-1.03c-.38-.22-.81-.34-1.29-.34s-.92.12-1.31.36c-.39.24-.69.59-.91,1.05-.22.47-.33,1.04-.33,1.72v.59c0,.64.11,1.2.33,1.65s.53.81.94,1.05c.4.24.88.37,1.43.37.39,0,.73-.06,1.04-.18s.56-.28.76-.48.35-.44.44-.7l.03-.08h1.5l-.02.09c-.08.38-.22.73-.44,1.05s-.49.62-.82.87c-.33.25-.71.44-1.14.58-.43.14-.89.21-1.39.21Z"/>
    <path class="cls-4" d="M102.86,152v-12.68h1.58v12.68h-1.58Z"/>
    <path class="cls-4" d="M106.66,152v-9.14h1.53v1.3h.04c.25-.43.6-.78,1.07-1.06s1.05-.42,1.74-.42c1,0,1.78.3,2.33.91.55.61.83,1.43.83,2.47v5.93h-1.53v-5.66c0-.74-.17-1.31-.52-1.71-.35-.4-.87-.59-1.58-.59-.48,0-.9.11-1.26.32-.36.21-.63.51-.83.9s-.29.84-.29,1.36v5.38h-1.53Z"/>
    <path class="cls-4" d="M119.58,152.18c-.78,0-1.46-.19-2.04-.58s-1.04-.94-1.36-1.65c-.32-.71-.48-1.55-.48-2.51h0c0-.97.16-1.8.49-2.51s.78-1.26,1.36-1.65c.58-.39,1.25-.58,2.01-.58.43,0,.84.07,1.21.21s.71.33,1,.59c.29.26.53.56.72.91h.04v-5.07h1.53v12.68h-1.53v-1.55h-.04c-.19.36-.42.66-.71.92-.29.26-.61.45-.98.59s-.77.21-1.21.21ZM119.88,150.82c.52,0,.97-.14,1.37-.42s.71-.68.94-1.19.34-1.1.34-1.78h0c0-.69-.11-1.28-.34-1.79-.23-.51-.54-.9-.94-1.18s-.85-.42-1.37-.42-1,.14-1.4.41-.69.67-.91,1.17-.32,1.1-.32,1.8h0c0,.71.11,1.31.32,1.82s.51.9.91,1.17c.39.27.86.41,1.4.41Z"/>
    <path class="cls-4" d="M129.88,152.18c-.87,0-1.62-.19-2.25-.58s-1.11-.93-1.45-1.64-.5-1.54-.5-2.49h0c0-.95.17-1.78.51-2.5s.82-1.28,1.43-1.68c.62-.4,1.34-.6,2.17-.6s1.55.19,2.15.58,1.06.92,1.38,1.61.48,1.49.48,2.41v.56h-7.37v-1.2h6.61l-.77,1.11v-.59c0-.71-.11-1.29-.32-1.76s-.51-.81-.88-1.03c-.38-.22-.81-.34-1.29-.34s-.92.12-1.31.36c-.39.24-.69.59-.91,1.05-.22.47-.33,1.04-.33,1.72v.59c0,.64.11,1.2.33,1.65s.53.81.94,1.05c.4.24.88.37,1.43.37.39,0,.73-.06,1.04-.18s.56-.28.76-.48.35-.44.44-.7l.03-.08h1.5l-.02.09c-.08.38-.22.73-.44,1.05s-.49.62-.82.87c-.33.25-.71.44-1.14.58-.43.14-.89.21-1.39.21Z"/>
    <path class="cls-4" d="M134.45,152l3.11-4.57-3.06-4.57h1.71l2.2,3.43h.04l2.17-3.43h1.71l-3.08,4.51,3.04,4.63h-1.7l-2.19-3.48h-.04l-2.21,3.48h-1.7Z"/>
  </g>
  <g>
    <path class="cls-1" d="M56,24h64v64H56V24Z"/>
    <path class="cls-5" d="M119.79,60.21v10.43l-8.99,3.27-.21.15.14.1,9.2-3.35.07-.1v-10.66l-.14-.1-.07.25h0ZM118.99,38.98l-8.11,2.95v10.43l8.9-3.24v-10.43l-.8.29ZM119.79,59.89v-10.43l-8.9,3.24v10.43l8.9-3.24ZM110.59,63.23v-10.43l-8.8,3.2v10.43l8.8-3.21ZM101.42,77.32v-10.43l-8.83,3.22v10.43l8.83-3.22ZM101.79,66.82v10.31l8.84-3.22v-10.32l-8.84,3.22h0ZM107.37,71.84c-.98.36-1.77-.2-1.77-1.23s.79-2.17,1.77-2.53c.97-.35,1.77.2,1.77,1.24s-.79,2.17-1.77,2.52ZM91.27,48.84l.97-.35-8.76-3.19-8.86,3.23.27.1,8.49,3.09,7.89-2.87ZM110.69,52.44v-10.43l-8.9,3.24v10.43l8.9-3.24ZM101.49,55.78v-10.43l-8.81,3.21v10.43l8.81-3.2ZM92.38,48.66l-8.9,3.24v10.43l8.9-3.24v-10.43ZM74.42,59.11l8.86,3.22v-10.43l-8.86-3.22v10.43ZM83.57,44.99l8.75,3.18v-10.31l-8.75-3.18v10.31ZM110.69,31.24l-8.85,3.22v10.43l8.85-3.22v-10.43ZM101.2,34.41l-8.6-3.13-8.72,3.17,8.6,3.13,8.72-3.18ZM96.97,36.28l-4.33,1.58v10.31l8.85-3.22v-10.31s-4.51,1.64-4.51,1.64ZM95.93,43.69c-.98.36-1.77-.2-1.77-1.24s.79-2.17,1.77-2.52c.98-.35,1.77.2,1.77,1.24s-.79,2.17-1.77,2.52ZM83.28,73.09v-10.44l-8.86-3.22v10.43l8.86,3.23ZM92.47,69.82v-10.43l-8.99,3.27v10.43l8.99-3.27ZM92.68,69.74l8.8-3.2v-10.44l-8.8,3.2v10.44ZM92.47,80.58l-8.99,3.27v-10.43h-.21v10.43l-8.86-3.22v-10.43l-.14-.15-.07-.16-8.9-3.23v-10.53l.09.03,8.77,3.19.04-.21-8.7-3.17,8.69-3.17v-.29l-7.87-2.86-.82-.3,8.69-3.17v2.34l.21-.15v-6.33l8.69,3.16.15-.16-8.37-3.05-.27-.1,8.64-3.14v-.22l-8.98,3.27v.05l-.07.05v4.06l-9.04,3.29v.05l-.07.05v10.69l-9.04,3.29v.05l-.07.05v10.65l.07.1,9.07,3.3.02-.02.02.03,9.07,3.3.02-.02.02.03,9.07,3.3.04-.02.03.03,9.2-3.35.07-.1-.21-.07ZM65.31,49.5l8.69,3.16-8.69,3.17v-6.33h0ZM65.07,77.23l-8.86-3.22v-10.43l6.3,2.29,2.56.93v10.43h0ZM65.11,66.59l-8.21-2.99-.49-.18,8.7-3.17v6.33h0ZM74.17,80.54l-8.86-3.22v-10.43l8.86,3.22v10.43ZM119.44,38.49l-8.56-3.12v6.23l8.56-3.11ZM110.37,31.05l-8.64-3.15-8.72,3.17,8.66,3.15,8.7-3.18Z"/>
  </g>
</svg>