<?xml version="1.0" encoding="UTF-8"?>
<svg id="Layer_1" data-name="Layer 1" xmlns="http://www.w3.org/2000/svg" xmlns:xlink="http://www.w3.org/1999/xlink" viewBox="0 0 384 176">
  <defs>
    <style>
      .cls-1 {
        filter: url(#outer-glow-1);
      }

      .cls-2 {
        isolation: isolate;
      }

      .cls-3 {
        fill: #fff;
      }

      .cls-4 {
        fill: #e9e9e9;
      }

      .cls-5 {
        fill: #e60023;
      }
    </style>
    <filter id="outer-glow-1" x="68" y="34" width="248" height="124" filterUnits="userSpaceOnUse">
      <feOffset dx="0" dy="0"/>
      <feGaussianBlur result="blur" stdDeviation="10"/>
      <feFlood flood-color="#000" flood-opacity=".5"/>
      <feComposite in2="blur" operator="in"/>
      <feComposite in="SourceGraphic"/>
    </filter>
  </defs>
  <path class="cls-4" d="M0,24C0,10.75,10.75,0,24,0h336c13.25,0,24,10.75,24,24v128c0,13.25-10.75,24-24,24H24c-13.25,0-24-10.75-24-24V24Z"/>
  <g class="cls-2">
    <path d="M142.61,36.68v-12.68h1.58v12.68h-1.58ZM143.4,32.16v-1.41h3.32c.91,0,1.61-.24,2.11-.71.5-.47.75-1.12.75-1.96v-.02c0-.84-.25-1.49-.75-1.96s-1.2-.7-2.11-.7h-3.32v-1.41h3.73c.8,0,1.5.17,2.11.51s1.09.81,1.44,1.42.52,1.32.52,2.12v.02c0,.8-.17,1.51-.52,2.13s-.83,1.1-1.44,1.44-1.31.52-2.11.52h-3.73Z"/>
    <path d="M153.63,26c-.26,0-.49-.09-.68-.28s-.28-.41-.28-.68.09-.5.28-.68c.19-.19.41-.28.68-.28s.5.09.68.28c.18.18.28.41.28.68s-.09.49-.28.68-.41.28-.68.28ZM152.87,36.68v-9.14h1.53v9.14h-1.53Z"/>
    <path d="M156.48,36.68v-9.14h1.53v1.3h.04c.25-.43.6-.78,1.07-1.06s1.05-.42,1.74-.42c1,0,1.78.3,2.33.91.55.61.83,1.43.83,2.47v5.93h-1.53v-5.66c0-.74-.17-1.31-.52-1.71-.35-.4-.87-.59-1.58-.59-.48,0-.9.11-1.26.32-.36.21-.63.51-.83.9s-.29.84-.29,1.36v5.38h-1.53Z"/>
    <path d="M168.94,36.86c-.84,0-1.46-.2-1.88-.6s-.62-1.03-.62-1.91v-5.55h-1.34v-1.27h1.34v-2.47h1.58v2.47h1.74v1.27h-1.74v5.54c0,.49.11.82.32.99.21.17.52.26.93.26.09,0,.18,0,.27-.01.08,0,.16-.02.22-.02v1.24c-.09.01-.22.02-.37.04-.15.01-.3.02-.45.02Z"/>
    <path d="M174.89,36.86c-.87,0-1.62-.19-2.25-.58s-1.11-.93-1.45-1.64-.5-1.54-.5-2.49h0c0-.95.17-1.78.51-2.5s.82-1.28,1.43-1.68c.62-.4,1.34-.6,2.17-.6s1.55.19,2.15.58,1.06.92,1.38,1.61.48,1.49.48,2.41v.56h-7.37v-1.2h6.61l-.77,1.11v-.59c0-.71-.11-1.29-.32-1.76s-.51-.81-.88-1.03c-.38-.22-.81-.34-1.29-.34s-.92.12-1.31.36c-.39.24-.69.59-.91,1.05-.22.47-.33,1.04-.33,1.72v.59c0,.64.11,1.2.33,1.65s.53.81.94,1.05c.4.24.88.37,1.43.37.39,0,.73-.06,1.04-.18s.56-.28.76-.48.35-.44.44-.7l.03-.08h1.5l-.02.09c-.08.38-.22.73-.44,1.05s-.49.62-.82.87c-.33.25-.71.44-1.14.58-.43.14-.89.21-1.39.21Z"/>
    <path d="M180.34,36.68v-9.14h1.53v1.55h.04c.15-.53.42-.95.79-1.26s.82-.47,1.34-.47c.13,0,.26,0,.36.02.11.02.19.03.25.04v1.49c-.06-.02-.16-.04-.31-.06s-.32-.03-.5-.03c-.39,0-.74.09-1.03.26s-.52.43-.69.76c-.16.33-.24.73-.24,1.19v5.64h-1.53Z"/>
    <path d="M189.21,36.86c-.87,0-1.62-.19-2.25-.58s-1.11-.93-1.45-1.64-.5-1.54-.5-2.49h0c0-.95.17-1.78.51-2.5s.82-1.28,1.43-1.68c.62-.4,1.34-.6,2.17-.6s1.55.19,2.15.58,1.06.92,1.38,1.61.48,1.49.48,2.41v.56h-7.37v-1.2h6.61l-.77,1.11v-.59c0-.71-.11-1.29-.32-1.76s-.51-.81-.88-1.03c-.38-.22-.81-.34-1.29-.34s-.92.12-1.31.36c-.39.24-.69.59-.91,1.05-.22.47-.33,1.04-.33,1.72v.59c0,.64.11,1.2.33,1.65s.53.81.94,1.05c.4.24.88.37,1.43.37.39,0,.73-.06,1.04-.18s.56-.28.76-.48.35-.44.44-.7l.03-.08h1.5l-.02.09c-.08.38-.22.73-.44,1.05s-.49.62-.82.87c-.33.25-.71.44-1.14.58-.43.14-.89.21-1.39.21Z"/>
    <path d="M197.91,36.86c-.71,0-1.33-.11-1.85-.34s-.93-.55-1.24-.96-.48-.89-.55-1.43v-.08s1.52,0,1.52,0l.02.09c.09.46.31.81.66,1.07.35.25.83.38,1.45.38.42,0,.77-.05,1.06-.16.29-.11.52-.26.68-.46.16-.2.24-.44.24-.72h0c0-.34-.1-.6-.3-.8s-.56-.36-1.08-.49l-1.45-.35c-.57-.14-1.05-.32-1.43-.55-.38-.22-.66-.5-.85-.83s-.28-.71-.28-1.15h0c0-.54.14-1,.43-1.41s.68-.72,1.19-.95,1.09-.34,1.75-.34,1.25.12,1.74.36c.5.24.88.56,1.17.97.28.41.44.87.48,1.38v.11s-1.45,0-1.45,0v-.06c-.07-.45-.26-.8-.59-1.07s-.78-.4-1.35-.4c-.37,0-.69.06-.96.17s-.48.27-.62.47c-.14.2-.21.44-.21.71h0c0,.21.05.4.14.57.1.17.25.31.46.44s.48.23.82.31l1.45.35c.93.22,1.58.53,1.95.92s.56.91.56,1.56h0c0,.54-.15,1.01-.46,1.42s-.73.73-1.27.96c-.54.23-1.14.35-1.82.35Z"/>
    <path d="M206.02,36.86c-.84,0-1.46-.2-1.88-.6s-.62-1.03-.62-1.91v-5.55h-1.34v-1.27h1.34v-2.47h1.58v2.47h1.74v1.27h-1.74v5.54c0,.49.11.82.32.99.21.17.52.26.93.26.09,0,.18,0,.27-.01.08,0,.16-.02.22-.02v1.24c-.09.01-.22.02-.37.04-.15.01-.3.02-.45.02Z"/>
    <path d="M212.16,39.76v-12.22h1.53v1.55h.04c.19-.36.43-.66.72-.92.28-.26.61-.45.98-.59s.77-.21,1.2-.21c.78,0,1.46.2,2.04.58.58.39,1.04.94,1.36,1.65.32.71.48,1.55.48,2.51h0c0,.97-.16,1.8-.49,2.51s-.78,1.26-1.35,1.65-1.25.58-2.02.58c-.43,0-.83-.07-1.2-.21-.38-.14-.71-.33-1-.59-.29-.26-.53-.56-.72-.91h-.04v4.61h-1.53ZM216.33,35.51c.54,0,1-.14,1.4-.41s.69-.67.91-1.17.32-1.11.32-1.8h0c0-.71-.11-1.32-.32-1.82s-.51-.9-.91-1.17c-.39-.27-.86-.41-1.4-.41s-.97.14-1.37.42-.71.68-.94,1.18c-.23.51-.34,1.1-.34,1.79h0c0,.69.11,1.28.34,1.79s.54.9.94,1.18.85.42,1.37.42Z"/>
    <path d="M222.91,26c-.26,0-.49-.09-.68-.28s-.28-.41-.28-.68.09-.5.28-.68c.19-.19.41-.28.68-.28s.5.09.68.28c.18.18.28.41.28.68s-.09.49-.28.68-.41.28-.68.28ZM222.14,36.68v-9.14h1.53v9.14h-1.53Z"/>
    <path d="M225.76,36.68v-9.14h1.53v1.3h.04c.25-.43.6-.78,1.07-1.06s1.05-.42,1.74-.42c1,0,1.78.3,2.33.91.55.61.83,1.43.83,2.47v5.93h-1.53v-5.66c0-.74-.17-1.31-.52-1.71-.35-.4-.87-.59-1.58-.59-.48,0-.9.11-1.26.32-.36.21-.63.51-.83.9s-.29.84-.29,1.36v5.38h-1.53Z"/>
    <path d="M238.48,36.86c-.71,0-1.33-.11-1.85-.34s-.93-.55-1.24-.96-.48-.89-.55-1.43v-.08s1.52,0,1.52,0l.02.09c.09.46.31.81.66,1.07.35.25.83.38,1.45.38.42,0,.77-.05,1.06-.16.29-.11.52-.26.68-.46.16-.2.24-.44.24-.72h0c0-.34-.1-.6-.3-.8s-.56-.36-1.08-.49l-1.45-.35c-.57-.14-1.05-.32-1.43-.55-.38-.22-.66-.5-.85-.83s-.28-.71-.28-1.15h0c0-.54.14-1,.43-1.41s.68-.72,1.19-.95,1.09-.34,1.75-.34,1.25.12,1.74.36c.5.24.88.56,1.17.97.28.41.44.87.48,1.38v.11s-1.45,0-1.45,0v-.06c-.07-.45-.26-.8-.59-1.07s-.78-.4-1.35-.4c-.37,0-.69.06-.96.17s-.48.27-.62.47c-.14.2-.21.44-.21.71h0c0,.21.05.4.14.57.1.17.25.31.46.44s.48.23.82.31l1.45.35c.93.22,1.58.53,1.95.92s.56.91.56,1.56h0c0,.54-.15,1.01-.46,1.42s-.73.73-1.27.96c-.54.23-1.14.35-1.82.35Z"/>
  </g>
  <g id="Template" class="cls-1">
    <rect class="cls-3" x="98.68" y="64" width="186.64" height="64" rx="32" ry="32"/>
    <g>
      <path class="cls-5" d="M241.76,109.39c-.18-1.64-.05-3.21.31-4.71l1.44-6.22c-.23-.76-.42-1.62-.42-2.48,0-2.02.97-3.47,2.51-3.47s1.83.75,1.83,2.15-.1.96-.28,1.54l-.63,2.07c-.13.39-.18.78-.18,1.1,0,1.44,1.1,2.25,2.51,2.25,2.51,0,4.29-2.59,4.29-5.96s-2.45-6.14-6.07-6.14-6.59,2.62-6.59,6.28.45,2.85,1.33,3.79c-.29.49-.6.58-1.07.58-1.44,0-2.8-2.04-2.8-4.81,0-4.79,3.84-8.62,9.22-8.62s9.2,3.95,9.2,8.81-3.47,8.57-7.19,8.57-2.77-.63-3.68-1.77l-.75,3c-.39,1.56-.99,3.01-1.94,4.41,1.34.42,2.69.65,4.29.65,7.97,0,14.42-6.45,14.42-14.42s-6.45-14.42-14.42-14.42-14.42,6.45-14.42,14.42c.03,6.03,3.74,11.23,9.09,13.38"/>
      <path d="M122.1,86.71h10.9v3.14h-7.56v4.5h5.86v3.09h-5.86v6.71h-3.34v-17.45h0ZM139.6,104.48c3.9,0,6.64-2.8,6.64-6.59s-2.74-6.58-6.64-6.58-6.64,2.8-6.64,6.58,2.74,6.59,6.64,6.59ZM139.61,101.37c-1.81,0-3.29-1.21-3.29-3.48s1.49-3.48,3.29-3.48,3.3,1.21,3.3,3.48-1.51,3.48-3.3,3.48h0ZM148.22,104.14h3.21v-18.17h-3.21v18.17ZM153.97,104.14h3.21v-18.17h-3.21v18.17ZM165.76,104.48c3.9,0,6.64-2.8,6.64-6.59s-2.74-6.58-6.64-6.58-6.64,2.8-6.64,6.58,2.74,6.59,6.64,6.59ZM162.47,97.89c0-2.27,1.49-3.48,3.29-3.48s3.3,1.21,3.3,3.48-1.51,3.48-3.3,3.48-3.29-1.21-3.29-3.48ZM172.77,91.65l3.86,12.49h3.63l2.49-9.36,2.48,9.36h3.61l3.86-12.49h-3.42l-2.25,9.57-2.43-9.57h-3.73l-2.43,9.57-2.25-9.57h-3.42,0ZM204.46,104.48c3.9,0,6.64-2.8,6.64-6.59s-2.74-6.58-6.64-6.58-6.64,2.8-6.64,6.58,2.74,6.59,6.64,6.59ZM201.18,97.89c0-2.27,1.49-3.48,3.29-3.48s3.3,1.21,3.3,3.48-1.51,3.48-3.3,3.48-3.29-1.21-3.29-3.48ZM213.09,91.65h0v12.49h3.21v-6.48c0-2.17.99-3.26,2.82-3.26s2.59,1.09,2.59,2.87v6.87h3.21v-8.13c0-2.96-1.9-4.7-4.79-4.7-1.93,0-3.3.84-3.95,2.07h-.1v-1.73h-3,.02Z"/>
    </g>
    <g>
      <circle class="cls-3" cx="247.09" cy="96.01" r="14.42"/>
      <path class="cls-5" d="M241.75,109.39c-.18-1.64-.05-3.21.31-4.71l1.44-6.22c-.23-.76-.42-1.62-.42-2.48,0-2.02.97-3.47,2.51-3.47s1.83.75,1.83,2.15-.1.96-.28,1.54l-.63,2.07c-.13.39-.18.78-.18,1.1,0,1.44,1.1,2.25,2.51,2.25,2.51,0,4.29-2.59,4.29-5.96s-2.45-6.14-6.07-6.14-6.59,2.62-6.59,6.28.45,2.85,1.33,3.79c-.29.49-.6.58-1.07.58-1.44,0-2.82-2.04-2.82-4.81,0-4.79,3.84-8.62,9.22-8.62s9.2,3.95,9.2,8.81-3.47,8.57-7.19,8.57-2.77-.63-3.68-1.77l-.75,3c-.39,1.56-.99,3.01-1.94,4.41,1.34.42,2.69.65,4.29.65,7.97,0,14.42-6.45,14.42-14.42s-6.45-14.42-14.42-14.42-14.42,6.45-14.42,14.42,3.71,11.24,9.05,13.38"/>
    </g>
  </g>
</svg>